<svg xmlns="http://www.w3.org/2000/svg" width="80" height="80" viewBox="0 0 20 20" fill="none">
  <path d="M10 18C9.50294 18 9.1 17.602 9.1 17.1111V6.44445C9.1 5.95353 9.50294 5.55556 10 5.55556C10.4971 5.55556 10.9 5.95352 10.9 6.44444V17.1111C10.9 17.602 10.4971 18 10 18ZM6.4 15.3333C5.90294 15.3333 5.5 14.9354 5.5 14.4444V9.11111C5.5 8.62019 5.90294 8.22222 6.4 8.22222C6.89706 8.22222 7.3 8.62019 7.3 9.11111V14.4444C7.3 14.9354 6.89706 15.3333 6.4 15.3333ZM13.6 15.3333C13.1029 15.3333 12.7 14.9354 12.7 14.4444V9.11111C12.7 8.62019 13.1029 8.22222 13.6 8.22222C14.0971 8.22222 14.5 8.62019 14.5 9.11111V14.4444C14.5 14.9354 14.0971 15.3333 13.6 15.3333ZM2.8 12.6667C2.30294 12.6667 1.9 12.2687 1.9 11.7778C1.9 11.2869 2.30294 10.8889 2.8 10.8889C3.29706 10.8889 3.7 11.2869 3.7 11.7778C3.7 12.2687 3.29706 12.6667 2.8 12.6667ZM17.2 12.6667C16.7029 12.6667 16.3 12.2687 16.3 11.7778C16.3 11.2869 16.7029 10.8889 17.2 10.8889C17.6971 10.8889 18.1 11.2869 18.1 11.7778C18.1 12.2687 17.6971 12.6667 17.2 12.6667ZM1.9 8.22222C1.40294 8.22222 1 7.82425 1 7.33333C1 6.84241 1.40294 6.44444 1.9 6.44444H2.0575C2.6875 6.44444 3.27625 6.28889 3.82375 5.97778C4.37125 5.66667 4.81 5.24444 5.14 4.71111C5.65 3.86667 6.33625 3.2037 7.19875 2.72222C8.06125 2.24074 8.995 2 10 2C11.005 2 11.9388 2.24074 12.8012 2.72222C13.6637 3.2037 14.35 3.86667 14.86 4.71111C15.19 5.24444 15.6288 5.66667 16.1763 5.97778C16.7238 6.28889 17.3125 6.44444 17.9425 6.44444H18.1C18.5971 6.44444 19 6.84241 19 7.33333C19 7.82425 18.5971 8.22222 18.1 8.22222H17.965C17.02 8.22222 16.1312 7.99259 15.2987 7.53333C14.4662 7.07407 13.81 6.44444 13.33 5.64444C12.985 5.06667 12.5162 4.61111 11.9237 4.27778C11.3312 3.94444 10.69 3.77778 10 3.77778C9.325 3.77778 8.69125 3.94444 8.09875 4.27778C7.50625 4.61111 7.0375 5.06667 6.6925 5.64444C6.2125 6.44444 5.55625 7.07407 4.72375 7.53333C3.89125 7.99259 3.0025 8.22222 2.0575 8.22222H1.9Z" fill="#000000"/>
</svg>
